<?xml version="1.0" standalone="no"?><svg xmlns="http://www.w3.org/2000/svg" viewBox="0 0 1440 320"><path fill="#0000" fill-opacity="1" d="M0,64L18.5,90.7C36.9,117,74,171,111,170.7C147.7,171,185,117,222,128C258.5,139,295,213,332,240C369.2,267,406,245,443,229.3C480,213,517,203,554,202.7C590.8,203,628,213,665,208C701.5,203,738,181,775,181.3C812.3,181,849,203,886,186.7C923.1,171,960,117,997,96C1033.8,75,1071,85,1108,101.3C1144.6,117,1182,139,1218,170.7C1255.4,203,1292,245,1329,224C1366.2,203,1403,117,1422,74.7L1440,32L1440,320L1421.5,320C1403.1,320,1366,320,1329,320C1292.3,320,1255,320,1218,320C1181.5,320,1145,320,1108,320C1070.8,320,1034,320,997,320C960,320,923,320,886,320C849.2,320,812,320,775,320C738.5,320,702,320,665,320C627.7,320,591,320,554,320C516.9,320,480,320,443,320C406.2,320,369,320,332,320C295.4,320,258,320,222,320C184.6,320,148,320,111,320C73.8,320,37,320,18,320L0,320Z"></path></svg>